<?xml version="1.0" encoding="iso-8859-1"?>
<!-- Uploaded to: SVG Repo, www.svgrepo.com, Generator: SVG Repo Mixer Tools -->
<svg fill="#eeeeee" height="800px" width="800px" version="1.1" id="Layer_1" xmlns="http://www.w3.org/2000/svg" xmlns:xlink="http://www.w3.org/1999/xlink" 
	 viewBox="0 0 481.664 481.664" xml:space="preserve">
<g>
	<g>
		<path d="M332.593,36.776c-2.48-3.2-5.192-6.296-8.088-9.192c-36.768-36.768-96.592-36.768-133.36,0L176.121,42.6l-15.024-15.024
			c-36.768-36.768-96.592-36.768-133.36,0c-36.76,36.768-36.76,96.592,0,133.352l125.056,125.056
			c-5.568,0.888-10.92,3.352-15.2,7.56c-5.304,5.208-8.216,12.152-8.216,19.544c0,7.392,2.912,14.336,8.216,19.544l30.528,30.032
			v111c0,4.416,3.576,8,8,8s8-3.584,8-8v-111l30.52-30.024c5.304-5.208,8.216-12.152,8.216-19.544
			c0-7.392-2.912-14.336-8.216-19.544c-4.28-4.208-9.632-6.672-15.192-7.56l30.664-30.664c3.128-3.128,3.128-8.184,0-11.312
			c-3.128-3.128-8.184-3.128-11.312,0l-42.68,42.672L39.049,149.624c-30.52-30.528-30.52-80.2,0-110.728
			c30.528-30.528,80.2-30.528,110.736,0l15.328,15.328l-26.952,30.112c-2.944,3.296-2.664,8.352,0.624,11.296
			c1.52,1.36,3.432,2.032,5.336,2.032c2.192,0,4.384-0.896,5.96-2.664l31.864-35.6l20.512-20.512
			c30.528-30.528,80.208-30.528,110.728,0c2.416,2.416,4.68,4.992,6.736,7.656c2.696,3.496,7.712,4.152,11.224,1.448
			C334.641,45.296,335.289,40.272,332.593,36.776z M165.745,304.952l4.768,4.688c3.112,3.072,8.112,3.072,11.216,0l4.768-4.688
			c4.672-4.584,12.256-4.592,16.928,0c2.216,2.184,3.44,5.072,3.44,8.136c0,3.072-1.216,5.96-3.44,8.144l-25.256,24.848
			c-0.672-0.184-1.32-0.416-2.048-0.416c-0.728,0-1.376,0.232-2.048,0.416l-25.256-24.848c-2.216-2.184-3.44-5.072-3.44-8.144
			c0-3.064,1.216-5.952,3.44-8.136c2.336-2.296,5.4-3.44,8.472-3.44C160.345,301.512,163.409,302.656,165.745,304.952z"/>
	</g>
</g>
<g>
	<g>
		<path d="M125.801,115.984c-0.4-0.32-0.808-0.64-1.28-0.96c-0.4-0.32-0.888-0.56-1.36-0.72c-0.488-0.24-0.96-0.4-1.52-0.48
			c-0.96-0.24-2.08-0.24-3.04,0c-0.552,0.08-1.04,0.24-1.512,0.48c-0.488,0.16-0.96,0.4-1.448,0.72c-0.4,0.32-0.8,0.64-1.192,0.96
			c-1.456,1.52-2.328,3.6-2.328,5.68s0.872,4.16,2.32,5.68c0.4,0.32,0.8,0.64,1.192,0.96c0.488,0.32,0.96,0.56,1.448,0.72
			c0.48,0.24,0.96,0.4,1.512,0.48c0.488,0.08,1.04,0.16,1.528,0.16c0.48,0,1.04-0.08,1.512-0.16c0.56-0.08,1.04-0.24,1.52-0.48
			c0.48-0.16,0.96-0.4,1.36-0.72c0.48-0.32,0.88-0.64,1.28-0.96c1.448-1.52,2.328-3.6,2.328-5.68S127.241,117.504,125.801,115.984z"
			/>
	</g>
</g>
<g>
	<g>
		<path d="M481.497,132.528c0-21.784-8.624-42.256-24.288-57.664c-32.16-31.64-84.56-31.648-116.816-0.008l-12.296,12.08
			l-12.256-12.088c-32.248-31.632-84.648-31.632-116.808,0.008c-15.664,15.408-24.288,35.88-24.288,57.664
			c0,21.776,8.624,42.256,24.288,57.664l105.536,103.832c-5.488,0.92-10.752,3.384-14.976,7.536
			c-5.304,5.208-8.216,12.152-8.216,19.544c0,7.392,2.912,14.336,8.216,19.544l30.528,30.024v103c0,4.416,3.576,8,8,8s8-3.584,8-8
			v-103l30.52-30.024c5.304-5.208,8.216-12.152,8.216-19.544c0-7.392-2.912-14.336-8.216-19.544
			c-4.224-4.152-9.488-6.616-14.968-7.536l105.536-103.824C472.873,174.784,481.497,154.312,481.497,132.528z M355.425,312.952
			c2.216,2.184,3.44,5.072,3.44,8.136c0,3.072-1.216,5.96-3.44,8.144l-25.256,24.848c-0.672-0.184-1.32-0.416-2.048-0.416
			c-0.728,0-1.376,0.232-2.048,0.416l-25.256-24.848c-2.216-2.184-3.44-5.072-3.44-8.144c0-3.064,1.216-5.952,3.44-8.136
			c2.336-2.296,5.4-3.44,8.472-3.44c3.064,0,6.128,1.144,8.464,3.44l4.768,4.688c3.112,3.072,8.112,3.072,11.216,0l4.768-4.688
			C343.161,308.376,350.745,308.36,355.425,312.952z M328.121,294.736l-117.864-115.96c-12.584-12.376-19.504-28.8-19.504-46.256
			s6.92-33.88,19.504-46.256c12.992-12.784,30.072-19.168,47.168-19.168c17.088,0,34.176,6.384,47.2,19.16l17.84,17.6
			c0.008,0.008,0.024,0.008,0.032,0.024c0.008,0.008,0.008,0.016,0.016,0.024l32,31.464c1.552,1.528,3.584,2.296,5.608,2.296
			c2.072,0,4.144-0.8,5.704-2.392c3.104-3.152,3.056-8.216-0.096-11.312l-26.232-25.792l12.104-11.896
			c26.064-25.56,68.408-25.568,94.392-0.008c12.576,12.376,19.504,28.8,19.504,46.256c0.008,17.456-6.92,33.88-19.504,46.256
			L328.121,294.736z"/>
	</g>
</g>
<g>
	<g>
		<path d="M389.801,147.984c-3.04-2.96-8.4-2.96-11.36,0c-1.448,1.52-2.32,3.6-2.32,5.68s0.872,4.16,2.32,5.68
			c1.512,1.44,3.6,2.32,5.68,2.32c2.08,0,4.16-0.88,5.68-2.32c1.44-1.52,2.32-3.6,2.32-5.68S391.241,149.504,389.801,147.984z"/>
	</g>
</g>
</svg>